STARTFONT 2.3
FONT -FontForge-Shadows Into Light-Book-R-Normal--8-80-72-72-P-33-ISO10646-1
SIZE 8 72 72  4
FONTBOUNDINGBOX 12 14 -2 -4
COMMENT "Generated by fontforge, http://fontforge.sourceforge.net"
COMMENT "Copyright (c) 2010, Kimberly Geswein (kimberlygeswein.com)"
STARTPROPERTIES 40
FOUNDRY "FontForge"
FAMILY_NAME "Shadows Into Light"
WEIGHT_NAME "Book"
SLANT "R"
SETWIDTH_NAME "Normal"
ADD_STYLE_NAME ""
PIXEL_SIZE 8
POINT_SIZE 80
RESOLUTION_X 72
RESOLUTION_Y 72
SPACING "P"
AVERAGE_WIDTH 33
CHARSET_REGISTRY "ISO10646"
CHARSET_ENCODING "1"
FONTNAME_REGISTRY ""
CHARSET_COLLECTIONS "ISO8859-2 ISO8859-9 ISO8859-4 ISO10646-1"
BITS_PER_PIXEL 4
FONT_NAME "ShadowsIntoLight"
FACE_NAME "Shadows Into Light"
COPYRIGHT "Copyright (c) 2010, Kimberly Geswein (kimberlygeswein.com)"
FONT_VERSION "001.000"
FONT_ASCENT 6
FONT_DESCENT 2
UNDERLINE_POSITION 0
UNDERLINE_THICKNESS 0
X_HEIGHT 4
CAP_HEIGHT 5
RAW_ASCENT 799
RAW_DESCENT 200
NORM_SPACE 4
RELATIVE_WEIGHT 40
RELATIVE_SETWIDTH 50
SUPERSCRIPT_X 0
SUPERSCRIPT_Y 3
SUPERSCRIPT_SIZE 5
SUBSCRIPT_X 0
SUBSCRIPT_Y 1
SUBSCRIPT_SIZE 5
AVG_LOWERCASE_WIDTH 30
AVG_UPPERCASE_WIDTH 38
ENDPROPERTIES
CHARS 352
STARTCHAR space
ENCODING 32
SWIDTH 450 0
DWIDTH 4 0
BBX 1 1 0 0
BITMAP
00
ENDCHAR
STARTCHAR exclam
ENCODING 33
SWIDTH 137 0
DWIDTH 1 0
BBX 1 7 0 0
BITMAP
40
50
60
70
20
00
20
ENDCHAR
STARTCHAR quotedbl
ENCODING 34
SWIDTH 212 0
DWIDTH 2 0
BBX 2 3 0 4
BITMAP
21
54
43
ENDCHAR
STARTCHAR numbersign
ENCODING 35
SWIDTH 450 0
DWIDTH 4 0
BBX 4 5 0 0
BITMAP
1360
3990
07A2
3850
0100
ENDCHAR
STARTCHAR dollar
ENCODING 36
SWIDTH 445 0
DWIDTH 4 0
BBX 4 8 0 -1
BITMAP
0100
0610
2A30
7600
4943
0571
0640
0040
ENDCHAR
STARTCHAR percent
ENCODING 37
SWIDTH 450 0
DWIDTH 4 0
BBX 4 7 0 0
BITMAP
0020
4260
7640
3610
0565
0442
0300
ENDCHAR
STARTCHAR ampersand
ENCODING 38
SWIDTH 356 0
DWIDTH 3 0
BBX 3 4 0 1
BITMAP
0200
0520
6C20
5800
ENDCHAR
STARTCHAR quotesingle
ENCODING 39
SWIDTH 155 0
DWIDTH 1 0
BBX 1 3 0 2
BITMAP
70
60
10
ENDCHAR
STARTCHAR parenleft
ENCODING 40
SWIDTH 291 0
DWIDTH 2 0
BBX 3 7 0 0
BITMAP
0310
0600
5100
6000
6000
6000
3500
ENDCHAR
STARTCHAR parenright
ENCODING 41
SWIDTH 241 0
DWIDTH 2 0
BBX 2 6 0 0
BITMAP
61
05
05
05
06
22
ENDCHAR
STARTCHAR asterisk
ENCODING 42
SWIDTH 481 0
DWIDTH 4 0
BBX 4 5 0 0
BITMAP
0200
3661
6E92
4A32
1200
ENDCHAR
STARTCHAR plus
ENCODING 43
SWIDTH 466 0
DWIDTH 4 0
BBX 4 4 0 1
BITMAP
0200
0501
4952
0600
ENDCHAR
STARTCHAR comma
ENCODING 44
SWIDTH 112 0
DWIDTH 1 0
BBX 1 2 0 -1
BITMAP
70
50
ENDCHAR
STARTCHAR hyphen
ENCODING 45
SWIDTH 399 0
DWIDTH 3 0
BBX 3 2 0 1
BITMAP
0370
5400
ENDCHAR
STARTCHAR period
ENCODING 46
SWIDTH 128 0
DWIDTH 1 0
BBX 1 1 0 0
BITMAP
30
ENDCHAR
STARTCHAR slash
ENCODING 47
SWIDTH 306 0
DWIDTH 2 0
BBX 3 7 0 -1
BITMAP
0210
0600
0600
1400
5000
6000
3000
ENDCHAR
STARTCHAR zero
ENCODING 48
SWIDTH 308 0
DWIDTH 2 0
BBX 3 5 0 0
BITMAP
0200
4510
5130
5220
4700
ENDCHAR
STARTCHAR one
ENCODING 49
SWIDTH 112 0
DWIDTH 1 0
BBX 1 5 0 0
BITMAP
40
50
50
60
50
ENDCHAR
STARTCHAR two
ENCODING 50
SWIDTH 512 0
DWIDTH 4 0
BBX 4 5 0 0
BITMAP
0720
5160
0240
0602
0952
ENDCHAR
STARTCHAR three
ENCODING 51
SWIDTH 461 0
DWIDTH 4 0
BBX 4 6 0 0
BITMAP
1530
5250
0A51
2306
0052
0540
ENDCHAR
STARTCHAR four
ENCODING 52
SWIDTH 503 0
DWIDTH 4 0
BBX 4 7 0 0
BITMAP
0010
00B0
0680
2562
8592
0060
0060
ENDCHAR
STARTCHAR five
ENCODING 53
SWIDTH 478 0
DWIDTH 4 0
BBX 4 6 0 0
BITMAP
2144
A400
7350
8360
0160
0610
ENDCHAR
STARTCHAR six
ENCODING 54
SWIDTH 375 0
DWIDTH 3 0
BBX 3 7 0 0
BITMAP
1200
4200
6000
5010
6670
7450
7810
ENDCHAR
STARTCHAR seven
ENCODING 55
SWIDTH 458 0
DWIDTH 4 0
BBX 4 6 0 0
BITMAP
4794
0070
0060
0050
0060
0070
ENDCHAR
STARTCHAR eight
ENCODING 56
SWIDTH 333 0
DWIDTH 3 0
BBX 3 6 0 0
BITMAP
1710
6440
6320
3900
2520
4630
ENDCHAR
STARTCHAR nine
ENCODING 57
SWIDTH 475 0
DWIDTH 4 0
BBX 4 6 0 0
BITMAP
0250
3594
6645
7305
0006
0006
ENDCHAR
STARTCHAR colon
ENCODING 58
SWIDTH 120 0
DWIDTH 1 0
BBX 1 3 0 1
BITMAP
20
00
20
ENDCHAR
STARTCHAR semicolon
ENCODING 59
SWIDTH 121 0
DWIDTH 1 0
BBX 1 4 0 -1
BITMAP
20
00
70
50
ENDCHAR
STARTCHAR less
ENCODING 60
SWIDTH 409 0
DWIDTH 3 0
BBX 4 4 0 1
BITMAP
0081
1710
6500
0380
ENDCHAR
STARTCHAR equal
ENCODING 61
SWIDTH 433 0
DWIDTH 3 0
BBX 4 3 0 0
BITMAP
4650
2561
3000
ENDCHAR
STARTCHAR greater
ENCODING 62
SWIDTH 450 0
DWIDTH 4 0
BBX 4 5 0 1
BITMAP
1000
3830
0081
0450
5500
ENDCHAR
STARTCHAR question
ENCODING 63
SWIDTH 445 0
DWIDTH 4 0
BBX 4 8 0 0
BITMAP
0240
6425
0061
0630
0920
0210
0000
0300
ENDCHAR
STARTCHAR at
ENCODING 64
SWIDTH 945 0
DWIDTH 8 0
BBX 8 8 0 0
BITMAP
00002000
00564620
05343060
24565060
62556150
74502300
70000172
17655510
ENDCHAR
STARTCHAR A
ENCODING 65
SWIDTH 390 0
DWIDTH 3 0
BBX 4 6 0 0
BITMAP
3600
5700
7420
73A5
8360
5050
ENDCHAR
STARTCHAR B
ENCODING 66
SWIDTH 537 0
DWIDTH 4 0
BBX 5 6 0 0
BITMAP
368100
816000
686810
550500
338100
161000
ENDCHAR
STARTCHAR C
ENCODING 67
SWIDTH 487 0
DWIDTH 4 0
BBX 4 6 0 0
BITMAP
0560
2400
6000
6002
6035
6650
ENDCHAR
STARTCHAR D
ENCODING 68
SWIDTH 554 0
DWIDTH 4 0
BBX 5 6 0 0
BITMAP
475200
640520
240410
151600
058100
072000
ENDCHAR
STARTCHAR E
ENCODING 69
SWIDTH 474 0
DWIDTH 4 0
BBX 4 6 0 0
BITMAP
5550
8300
6150
6500
7154
6710
ENDCHAR
STARTCHAR F
ENCODING 70
SWIDTH 428 0
DWIDTH 3 0
BBX 4 6 0 0
BITMAP
2051
9610
8001
8450
8200
5000
ENDCHAR
STARTCHAR G
ENCODING 71
SWIDTH 591 0
DWIDTH 5 0
BBX 5 7 0 -1
BITMAP
001100
045100
150120
602A30
602C00
686700
000500
ENDCHAR
STARTCHAR H
ENCODING 72
SWIDTH 424 0
DWIDTH 3 0
BBX 4 6 0 0
BITMAP
2020
6060
6070
7690
7151
6042
ENDCHAR
STARTCHAR I
ENCODING 73
SWIDTH 153 0
DWIDTH 1 0
BBX 1 6 0 0
BITMAP
60
60
60
60
60
50
ENDCHAR
STARTCHAR J
ENCODING 74
SWIDTH 371 0
DWIDTH 3 0
BBX 3 7 0 -1
BITMAP
0120
0160
0070
0060
0060
5060
1520
ENDCHAR
STARTCHAR K
ENCODING 75
SWIDTH 524 0
DWIDTH 4 0
BBX 5 6 0 0
BITMAP
200000
607000
643000
660000
585510
330000
ENDCHAR
STARTCHAR L
ENCODING 76
SWIDTH 537 0
DWIDTH 4 0
BBX 5 5 0 0
BITMAP
800000
800000
800000
802610
875000
ENDCHAR
STARTCHAR M
ENCODING 77
SWIDTH 682 0
DWIDTH 5 0
BBX 6 7 0 0
BITMAP
100000
940180
570560
634550
708550
711060
620052
ENDCHAR
STARTCHAR N
ENCODING 78
SWIDTH 541 0
DWIDTH 4 0
BBX 4 6 0 0
BITMAP
1007
A206
7806
6176
612B
4205
ENDCHAR
STARTCHAR O
ENCODING 79
SWIDTH 382 0
DWIDTH 3 0
BBX 3 6 0 0
BITMAP
0420
3580
7060
6070
6070
6820
ENDCHAR
STARTCHAR P
ENCODING 80
SWIDTH 508 0
DWIDTH 4 0
BBX 4 7 0 0
BITMAP
1262
9517
6036
6750
6200
5200
3200
ENDCHAR
STARTCHAR Q
ENCODING 81
SWIDTH 512 0
DWIDTH 4 0
BBX 4 6 0 0
BITMAP
2963
7105
6005
6075
6046
3666
ENDCHAR
STARTCHAR R
ENCODING 82
SWIDTH 503 0
DWIDTH 4 0
BBX 4 7 0 0
BITMAP
2020
9658
7152
8600
8820
5057
5000
ENDCHAR
STARTCHAR S
ENCODING 83
SWIDTH 541 0
DWIDTH 4 0
BBX 5 6 0 0
BITMAP
036200
530000
600000
555300
000910
066100
ENDCHAR
STARTCHAR T
ENCODING 84
SWIDTH 595 0
DWIDTH 5 0
BBX 6 6 0 0
BITMAP
037662
537000
005100
004300
002500
000600
ENDCHAR
STARTCHAR U
ENCODING 85
SWIDTH 450 0
DWIDTH 4 0
BBX 4 6 0 -1
BITMAP
5024
7055
6084
6084
5625
0005
ENDCHAR
STARTCHAR V
ENCODING 86
SWIDTH 524 0
DWIDTH 4 0
BBX 4 6 0 0
BITMAP
0005
5007
6107
1725
0771
01B0
ENDCHAR
STARTCHAR W
ENCODING 87
SWIDTH 878 0
DWIDTH 7 0
BBX 7 6 0 0
BITMAP
00000050
70091060
61075330
16427600
09604800
07700300
ENDCHAR
STARTCHAR X
ENCODING 88
SWIDTH 461 0
DWIDTH 4 0
BBX 4 6 0 0
BITMAP
1003
5251
0860
0A20
3560
5051
ENDCHAR
STARTCHAR Y
ENCODING 89
SWIDTH 483 0
DWIDTH 4 0
BBX 4 7 0 0
BITMAP
0001
0005
7024
1761
0390
0240
0500
ENDCHAR
STARTCHAR Z
ENCODING 90
SWIDTH 670 0
DWIDTH 5 0
BBX 6 6 0 0
BITMAP
455630
000810
006300
036000
170000
A98771
ENDCHAR
STARTCHAR bracketleft
ENCODING 91
SWIDTH 470 0
DWIDTH 4 0
BBX 4 10 0 -1
BITMAP
7550
6000
6000
5000
6000
5000
4100
3200
3301
2852
ENDCHAR
STARTCHAR backslash
ENCODING 92
SWIDTH 554 0
DWIDTH 4 0
BBX 5 8 0 0
BITMAP
700000
240000
060000
034000
007000
004300
000800
000530
ENDCHAR
STARTCHAR bracketright
ENCODING 93
SWIDTH 512 0
DWIDTH 4 0
BBX 4 11 0 -1
BITMAP
3553
3208
0007
0007
0006
0006
0006
0007
0007
0008
0277
ENDCHAR
STARTCHAR asciicircum
ENCODING 94
SWIDTH 390 0
DWIDTH 3 0
BBX 3 3 0 5
BITMAP
0400
3540
4030
ENDCHAR
STARTCHAR underscore
ENCODING 95
SWIDTH 612 0
DWIDTH 5 0
BBX 5 2 0 0
BITMAP
000340
577510
ENDCHAR
STARTCHAR grave
ENCODING 96
SWIDTH 155 0
DWIDTH 1 0
BBX 1 2 0 4
BITMAP
60
10
ENDCHAR
STARTCHAR a
ENCODING 97
SWIDTH 366 0
DWIDTH 3 0
BBX 3 5 0 0
BITMAP
0220
1870
7570
7860
9240
ENDCHAR
STARTCHAR b
ENCODING 98
SWIDTH 442 0
DWIDTH 4 0
BBX 4 7 0 0
BITMAP
5000
7000
7010
7792
9133
6180
8710
ENDCHAR
STARTCHAR c
ENCODING 99
SWIDTH 390 0
DWIDTH 3 0
BBX 3 5 0 0
BITMAP
2700
7400
6000
6060
5640
ENDCHAR
STARTCHAR d
ENCODING 100
SWIDTH 316 0
DWIDTH 3 0
BBX 3 8 0 -1
BITMAP
0430
0330
0330
6830
7330
5630
8540
0120
ENDCHAR
STARTCHAR e
ENCODING 101
SWIDTH 461 0
DWIDTH 4 0
BBX 4 5 0 0
BITMAP
0210
2790
9710
8044
5650
ENDCHAR
STARTCHAR f
ENCODING 102
SWIDTH 345 0
DWIDTH 3 0
BBX 3 8 0 0
BITMAP
0100
1B20
3500
4300
5940
5300
2500
1500
ENDCHAR
STARTCHAR g
ENCODING 103
SWIDTH 437 0
DWIDTH 4 0
BBX 4 9 0 -4
BITMAP
0140
16C0
64A1
6862
5253
0053
0070
0270
1500
ENDCHAR
STARTCHAR h
ENCODING 104
SWIDTH 466 0
DWIDTH 4 0
BBX 4 6 0 0
BITMAP
5000
6000
7485
7907
A407
7007
ENDCHAR
STARTCHAR i
ENCODING 105
SWIDTH 132 0
DWIDTH 1 0
BBX 1 6 0 0
BITMAP
20
30
70
70
60
60
ENDCHAR
STARTCHAR j
ENCODING 106
SWIDTH 112 0
DWIDTH 1 0
BBX 3 10 -2 -3
BITMAP
0020
0000
0000
0060
0060
0060
0060
0060
2160
0540
ENDCHAR
STARTCHAR k
ENCODING 107
SWIDTH 428 0
DWIDTH 3 0
BBX 4 7 0 -1
BITMAP
7000
7042
7190
7920
B400
7571
1000
ENDCHAR
STARTCHAR l
ENCODING 108
SWIDTH 137 0
DWIDTH 1 0
BBX 1 7 0 0
BITMAP
40
50
50
50
50
60
60
ENDCHAR
STARTCHAR m
ENCODING 109
SWIDTH 579 0
DWIDTH 5 0
BBX 5 5 0 0
BITMAP
500000
6A3C00
68B610
839420
700230
ENDCHAR
STARTCHAR n
ENCODING 110
SWIDTH 483 0
DWIDTH 4 0
BBX 4 5 0 0
BITMAP
3171
7725
8607
8507
7205
ENDCHAR
STARTCHAR o
ENCODING 111
SWIDTH 266 0
DWIDTH 2 0
BBX 2 5 0 0
BITMAP
22
66
66
66
85
ENDCHAR
STARTCHAR p
ENCODING 112
SWIDTH 482 0
DWIDTH 4 0
BBX 4 8 0 -3
BITMAP
1000
7656
9044
6750
8200
5000
6000
1000
ENDCHAR
STARTCHAR q
ENCODING 113
SWIDTH 408 0
DWIDTH 3 0
BBX 4 7 0 -3
BITMAP
0650
5290
62A0
5560
0042
0024
0001
ENDCHAR
STARTCHAR r
ENCODING 114
SWIDTH 396 0
DWIDTH 3 0
BBX 3 4 0 0
BITMAP
6760
6700
6600
4400
ENDCHAR
STARTCHAR s
ENCODING 115
SWIDTH 366 0
DWIDTH 3 0
BBX 3 5 0 -1
BITMAP
3620
6120
5680
0730
0100
ENDCHAR
STARTCHAR t
ENCODING 116
SWIDTH 268 0
DWIDTH 2 0
BBX 4 7 -1 -1
BITMAP
0600
0651
2C30
0700
0700
0600
0100
ENDCHAR
STARTCHAR u
ENCODING 117
SWIDTH 387 0
DWIDTH 3 0
BBX 3 5 0 -1
BITMAP
5050
6070
6290
5970
0010
ENDCHAR
STARTCHAR v
ENCODING 118
SWIDTH 354 0
DWIDTH 3 0
BBX 3 5 0 0
BITMAP
0020
3070
7170
1870
0570
ENDCHAR
STARTCHAR w
ENCODING 119
SWIDTH 566 0
DWIDTH 5 0
BBX 5 4 0 0
BITMAP
647420
586620
0D1A30
080220
ENDCHAR
STARTCHAR x
ENCODING 120
SWIDTH 454 0
DWIDTH 4 0
BBX 4 6 0 -1
BITMAP
0240
6330
2B10
0880
0713
0300
ENDCHAR
STARTCHAR y
ENCODING 121
SWIDTH 363 0
DWIDTH 3 0
BBX 3 8 0 -3
BITMAP
0010
5060
5360
0880
0290
0060
0060
0060
ENDCHAR
STARTCHAR z
ENCODING 122
SWIDTH 618 0
DWIDTH 5 0
BBX 5 4 0 0
BITMAP
36A100
208000
042010
097870
ENDCHAR
STARTCHAR braceleft
ENCODING 123
SWIDTH 348 0
DWIDTH 3 0
BBX 3 8 0 -1
BITMAP
1640
5100
1600
7200
8300
6000
7000
2710
ENDCHAR
STARTCHAR bar
ENCODING 124
SWIDTH 137 0
DWIDTH 1 0
BBX 1 7 0 0
BITMAP
40
50
50
50
50
60
60
ENDCHAR
STARTCHAR braceright
ENCODING 125
SWIDTH 348 0
DWIDTH 3 0
BBX 3 8 0 -1
BITMAP
5400
0600
0600
0730
0720
0060
0150
3800
ENDCHAR
STARTCHAR asciitilde
ENCODING 126
SWIDTH 458 0
DWIDTH 4 0
BBX 4 2 0 4
BITMAP
4732
2260
ENDCHAR
STARTCHAR nonbreakingspace
ENCODING 160
SWIDTH 450 0
DWIDTH 4 0
BBX 1 1 0 0
BITMAP
00
ENDCHAR
STARTCHAR exclamdown
ENCODING 161
SWIDTH 137 0
DWIDTH 1 0
BBX 1 6 0 -2
BITMAP
10
00
50
50
40
10
ENDCHAR
STARTCHAR cent
ENCODING 162
SWIDTH 394 0
DWIDTH 3 0
BBX 3 7 0 -1
BITMAP
0300
2A10
7520
6400
6460
5940
0300
ENDCHAR
STARTCHAR sterling
ENCODING 163
SWIDTH 539 0
DWIDTH 4 0
BBX 4 6 0 0
BITMAP
0023
0453
3930
4600
2400
2877
ENDCHAR
STARTCHAR currency
ENCODING 164
SWIDTH 500 0
DWIDTH 4 0
BBX 4 6 0 0
BITMAP
0001
1893
0760
0670
58A0
2010
ENDCHAR
STARTCHAR yen
ENCODING 165
SWIDTH 478 0
DWIDTH 4 0
BBX 4 7 0 0
BITMAP
1012
1781
0960
0441
2991
3871
0420
ENDCHAR
STARTCHAR brokenbar
ENCODING 166
SWIDTH 137 0
DWIDTH 1 0
BBX 1 7 0 0
BITMAP
40
50
40
30
50
60
60
ENDCHAR
STARTCHAR section
ENCODING 167
SWIDTH 366 0
DWIDTH 3 0
BBX 3 7 0 -1
BITMAP
3620
6010
8790
6650
5680
0730
0100
ENDCHAR
STARTCHAR dieresis
ENCODING 168
SWIDTH 306 0
DWIDTH 2 0
BBX 2 1 0 5
BITMAP
33
ENDCHAR
STARTCHAR copyright
ENCODING 169
SWIDTH 485 0
DWIDTH 4 0
BBX 4 6 0 0
BITMAP
0240
1846
6747
5628
65A4
7850
ENDCHAR
STARTCHAR ordfeminine
ENCODING 170
SWIDTH 227 0
DWIDTH 2 0
BBX 2 2 0 1
BITMAP
46
74
ENDCHAR
STARTCHAR guillemotleft
ENCODING 171
SWIDTH 652 0
DWIDTH 5 0
BBX 5 5 0 1
BITMAP
000010
008650
187400
658200
038640
ENDCHAR
STARTCHAR logicalnot
ENCODING 172
SWIDTH 539 0
DWIDTH 4 0
BBX 4 3 0 1
BITMAP
0122
2447
0006
ENDCHAR
STARTCHAR uni00AD
ENCODING 173
SWIDTH 399 0
DWIDTH 3 0
BBX 3 2 0 1
BITMAP
0370
5400
ENDCHAR
STARTCHAR registered
ENCODING 174
SWIDTH 382 0
DWIDTH 3 0
BBX 4 6 0 0
BITMAP
0130
1564
6776
6A47
6466
7760
ENDCHAR
STARTCHAR macron
ENCODING 175
SWIDTH 399 0
DWIDTH 3 0
BBX 3 1 0 5
BITMAP
4660
ENDCHAR
STARTCHAR degree
ENCODING 176
SWIDTH 201 0
DWIDTH 2 0
BBX 2 2 0 3
BITMAP
31
64
ENDCHAR
STARTCHAR plusminus
ENCODING 177
SWIDTH 466 0
DWIDTH 4 0
BBX 3 5 0 0
BITMAP
0200
0500
4950
0620
3540
ENDCHAR
STARTCHAR twosuperior
ENCODING 178
SWIDTH 318 0
DWIDTH 3 0
BBX 3 3 0 1
BITMAP
3200
1400
3410
ENDCHAR
STARTCHAR threesuperior
ENCODING 179
SWIDTH 280 0
DWIDTH 2 0
BBX 3 4 0 1
BITMAP
0100
3400
3410
1400
ENDCHAR
STARTCHAR acute
ENCODING 180
SWIDTH 155 0
DWIDTH 1 0
BBX 1 2 0 4
BITMAP
50
10
ENDCHAR
STARTCHAR mu
ENCODING 181
SWIDTH 387 0
DWIDTH 3 0
BBX 3 6 0 -1
BITMAP
2010
6070
7090
95A0
9530
5000
ENDCHAR
STARTCHAR paragraph
ENCODING 182
SWIDTH 447 0
DWIDTH 4 0
BBX 4 6 0 0
BITMAP
0010
7FC1
99A2
00A2
0093
0073
ENDCHAR
STARTCHAR periodcentered
ENCODING 183
SWIDTH 128 0
DWIDTH 1 0
BBX 1 2 0 1
BITMAP
20
20
ENDCHAR
STARTCHAR cedilla
ENCODING 184
SWIDTH 322 0
DWIDTH 3 0
BBX 3 4 0 -3
BITMAP
1000
6300
0930
3500
ENDCHAR
STARTCHAR onesuperior
ENCODING 185
SWIDTH 112 0
DWIDTH 1 0
BBX 1 3 0 1
BITMAP
30
50
50
ENDCHAR
STARTCHAR ordmasculine
ENCODING 186
SWIDTH 212 0
DWIDTH 2 0
BBX 2 3 0 1
BITMAP
20
54
64
ENDCHAR
STARTCHAR guillemotright
ENCODING 187
SWIDTH 625 0
DWIDTH 5 0
BBX 5 5 0 1
BITMAP
112000
389710
008260
047810
567000
ENDCHAR
STARTCHAR onequarter
ENCODING 188
SWIDTH 678 0
DWIDTH 5 0
BBX 5 7 0 -1
BITMAP
003000
142100
460A20
565540
755630
500420
300000
ENDCHAR
STARTCHAR onehalf
ENCODING 189
SWIDTH 693 0
DWIDTH 6 0
BBX 5 7 0 -1
BITMAP
003000
106000
425200
464500
460500
145530
300000
ENDCHAR
STARTCHAR threequarters
ENCODING 190
SWIDTH 868 0
DWIDTH 7 0
BBX 6 7 0 -1
BITMAP
000030
4622A0
183790
105C72
044850
005140
003000
ENDCHAR
STARTCHAR questiondown
ENCODING 191
SWIDTH 541 0
DWIDTH 4 0
BBX 4 7 0 -1
BITMAP
0030
0000
0250
0071
0540
2402
2655
ENDCHAR
STARTCHAR Agrave
ENCODING 192
SWIDTH 390 0
DWIDTH 3 0
BBX 4 7 0 0
BITMAP
0600
2900
3900
5440
72B5
7470
5041
ENDCHAR
STARTCHAR Aacute
ENCODING 193
SWIDTH 390 0
DWIDTH 3 0
BBX 4 8 0 0
BITMAP
2400
1000
3600
5700
7420
73A5
8360
5050
ENDCHAR
STARTCHAR Acircumflex
ENCODING 194
SWIDTH 390 0
DWIDTH 3 0
BBX 5 9 -1 0
BITMAP
022000
066100
120300
036000
057000
074200
073A50
083600
050500
ENDCHAR
STARTCHAR Atilde
ENCODING 195
SWIDTH 390 0
DWIDTH 3 0
BBX 4 8 0 0
BITMAP
6550
2540
3600
5700
7420
73A5
8360
5050
ENDCHAR
STARTCHAR Adieresis
ENCODING 196
SWIDTH 390 0
DWIDTH 3 0
BBX 4 7 0 0
BITMAP
3300
3600
5700
7420
73A5
8360
5050
ENDCHAR
STARTCHAR Aring
ENCODING 197
SWIDTH 390 0
DWIDTH 3 0
BBX 4 7 0 0
BITMAP
8800
6700
5700
7420
73A5
8360
5050
ENDCHAR
STARTCHAR AE
ENCODING 198
SWIDTH 708 0
DWIDTH 6 0
BBX 6 6 0 0
BITMAP
365550
578200
748240
73E300
83B063
506610
ENDCHAR
STARTCHAR Ccedilla
ENCODING 199
SWIDTH 487 0
DWIDTH 4 0
BBX 4 9 0 -3
BITMAP
0560
2400
6000
6002
6035
6650
0700
03A0
0560
ENDCHAR
STARTCHAR Egrave
ENCODING 200
SWIDTH 474 0
DWIDTH 4 0
BBX 4 7 0 0
BITMAP
0600
5650
8300
6150
6500
7154
6710
ENDCHAR
STARTCHAR Eacute
ENCODING 201
SWIDTH 474 0
DWIDTH 4 0
BBX 4 7 0 0
BITMAP
0330
5650
8300
6150
6500
7154
6710
ENDCHAR
STARTCHAR Ecircumflex
ENCODING 202
SWIDTH 474 0
DWIDTH 4 0
BBX 4 9 0 0
BITMAP
0310
0660
3112
5550
8300
6150
6500
7154
6710
ENDCHAR
STARTCHAR Edieresis
ENCODING 203
SWIDTH 474 0
DWIDTH 4 0
BBX 4 7 0 0
BITMAP
0330
5550
8300
6150
6500
7154
6710
ENDCHAR
STARTCHAR Igrave
ENCODING 204
SWIDTH 153 0
DWIDTH 1 0
BBX 1 8 0 0
BITMAP
60
10
60
60
60
60
60
50
ENDCHAR
STARTCHAR Iacute
ENCODING 205
SWIDTH 153 0
DWIDTH 1 0
BBX 2 8 0 0
BITMAP
41
10
60
60
60
60
60
50
ENDCHAR
STARTCHAR Icircumflex
ENCODING 206
SWIDTH 153 0
DWIDTH 1 0
BBX 4 9 -1 0
BITMAP
0400
1660
4021
0600
0600
0600
0600
0600
0500
ENDCHAR
STARTCHAR Idieresis
ENCODING 207
SWIDTH 153 0
DWIDTH 1 0
BBX 2 7 0 0
BITMAP
33
60
60
60
60
60
50
ENDCHAR
STARTCHAR Eth
ENCODING 208
SWIDTH 554 0
DWIDTH 4 0
BBX 5 6 0 0
BITMAP
475200
640520
240410
161600
5A9100
072000
ENDCHAR
STARTCHAR Ntilde
ENCODING 209
SWIDTH 541 0
DWIDTH 4 0
BBX 4 8 0 0
BITMAP
4732
2271
1007
A206
7806
6176
612B
4205
ENDCHAR
STARTCHAR Ograve
ENCODING 210
SWIDTH 382 0
DWIDTH 3 0
BBX 3 7 0 0
BITMAP
0240
0430
3580
7060
6070
6070
6820
ENDCHAR
STARTCHAR Oacute
ENCODING 211
SWIDTH 382 0
DWIDTH 3 0
BBX 3 7 0 0
BITMAP
0600
0520
3580
7060
6070
6070
6820
ENDCHAR
STARTCHAR Ocircumflex
ENCODING 212
SWIDTH 382 0
DWIDTH 3 0
BBX 3 8 0 0
BITMAP
0400
4540
4450
3580
7060
6070
6070
6820
ENDCHAR
STARTCHAR Otilde
ENCODING 213
SWIDTH 382 0
DWIDTH 3 0
BBX 4 7 0 0
BITMAP
4723
2580
3580
7060
6070
6070
6820
ENDCHAR
STARTCHAR Odieresis
ENCODING 214
SWIDTH 382 0
DWIDTH 3 0
BBX 3 6 0 0
BITMAP
0750
3580
7060
6070
6070
6820
ENDCHAR
STARTCHAR multiply
ENCODING 215
SWIDTH 454 0
DWIDTH 4 0
BBX 3 3 0 1
BITMAP
2240
0A20
3350
ENDCHAR
STARTCHAR Oslash
ENCODING 216
SWIDTH 382 0
DWIDTH 3 0
BBX 3 7 0 -1
BITMAP
0440
36A0
7570
6570
7570
8920
3000
ENDCHAR
STARTCHAR Ugrave
ENCODING 217
SWIDTH 450 0
DWIDTH 4 0
BBX 4 7 0 -1
BITMAP
0600
5124
7055
6084
6084
5625
0005
ENDCHAR
STARTCHAR Uacute
ENCODING 218
SWIDTH 450 0
DWIDTH 4 0
BBX 4 7 0 -1
BITMAP
0240
5124
7055
6084
6084
5625
0005
ENDCHAR
STARTCHAR Ucircumflex
ENCODING 219
SWIDTH 450 0
DWIDTH 4 0
BBX 4 9 0 -1
BITMAP
0400
1660
4021
5024
7055
6084
6084
5625
0005
ENDCHAR
STARTCHAR Udieresis
ENCODING 220
SWIDTH 450 0
DWIDTH 4 0
BBX 4 7 0 -1
BITMAP
0330
5024
7055
6084
6084
5625
0005
ENDCHAR
STARTCHAR Yacute
ENCODING 221
SWIDTH 483 0
DWIDTH 4 0
BBX 4 8 0 0
BITMAP
0150
0111
0005
7024
1761
0390
0240
0500
ENDCHAR
STARTCHAR Thorn
ENCODING 222
SWIDTH 398 0
DWIDTH 3 0
BBX 3 7 0 0
BITMAP
3000
6120
9780
8070
7540
9200
6000
ENDCHAR
STARTCHAR germandbls
ENCODING 223
SWIDTH 537 0
DWIDTH 4 0
BBX 5 6 0 0
BITMAP
368100
816000
686810
550500
338100
161000
ENDCHAR
STARTCHAR agrave
ENCODING 224
SWIDTH 366 0
DWIDTH 3 0
BBX 3 6 0 0
BITMAP
0600
0320
1870
7570
7860
9240
ENDCHAR
STARTCHAR aacute
ENCODING 225
SWIDTH 366 0
DWIDTH 3 0
BBX 3 6 0 0
BITMAP
0510
0320
1870
7570
7860
9240
ENDCHAR
STARTCHAR acircumflex
ENCODING 226
SWIDTH 366 0
DWIDTH 3 0
BBX 3 8 0 0
BITMAP
0400
5530
4030
0220
1870
7570
7860
9240
ENDCHAR
STARTCHAR atilde
ENCODING 227
SWIDTH 366 0
DWIDTH 3 0
BBX 4 6 0 0
BITMAP
5731
2570
1870
7570
7860
9240
ENDCHAR
STARTCHAR adieresis
ENCODING 228
SWIDTH 366 0
DWIDTH 3 0
BBX 3 6 0 0
BITMAP
2320
0220
1870
7570
7860
9240
ENDCHAR
STARTCHAR aring
ENCODING 229
SWIDTH 366 0
DWIDTH 3 0
BBX 3 6 0 0
BITMAP
1520
3760
1870
7570
7860
9240
ENDCHAR
STARTCHAR ae
ENCODING 230
SWIDTH 705 0
DWIDTH 6 0
BBX 6 5 0 0
BITMAP
022530
18B680
75E502
788062
927630
ENDCHAR
STARTCHAR ccedilla
ENCODING 231
SWIDTH 390 0
DWIDTH 3 0
BBX 3 8 0 -3
BITMAP
2700
7400
6000
6060
5640
2700
0480
1620
ENDCHAR
STARTCHAR egrave
ENCODING 232
SWIDTH 461 0
DWIDTH 4 0
BBX 4 6 0 0
BITMAP
0600
0310
2790
9710
8044
5650
ENDCHAR
STARTCHAR eacute
ENCODING 233
SWIDTH 461 0
DWIDTH 4 0
BBX 4 6 0 0
BITMAP
0240
0310
2790
9710
8044
5650
ENDCHAR
STARTCHAR ecircumflex
ENCODING 234
SWIDTH 461 0
DWIDTH 4 0
BBX 4 8 0 0
BITMAP
0300
1660
3021
0210
2790
9710
8044
5650
ENDCHAR
STARTCHAR edieresis
ENCODING 235
SWIDTH 461 0
DWIDTH 4 0
BBX 4 6 0 0
BITMAP
0330
0210
2790
9710
8044
5650
ENDCHAR
STARTCHAR igrave
ENCODING 236
SWIDTH 132 0
DWIDTH 1 0
BBX 1 7 0 0
BITMAP
30
40
30
70
70
60
60
ENDCHAR
STARTCHAR iacute
ENCODING 237
SWIDTH 132 0
DWIDTH 1 0
BBX 2 7 0 0
BITMAP
41
20
30
70
70
60
60
ENDCHAR
STARTCHAR icircumflex
ENCODING 238
SWIDTH 132 0
DWIDTH 1 0
BBX 3 8 -1 0
BITMAP
0400
4540
4030
0300
0700
0700
0600
0600
ENDCHAR
STARTCHAR idieresis
ENCODING 239
SWIDTH 132 0
DWIDTH 1 0
BBX 3 6 -1 0
BITMAP
2320
0300
0700
0700
0600
0600
ENDCHAR
STARTCHAR eth
ENCODING 240
SWIDTH 481 0
DWIDTH 4 0
BBX 4 5 0 0
BITMAP
0510
06A4
1660
63B0
3760
ENDCHAR
STARTCHAR ntilde
ENCODING 241
SWIDTH 483 0
DWIDTH 4 0
BBX 4 7 0 0
BITMAP
2724
2071
3171
7725
8607
8507
7205
ENDCHAR
STARTCHAR ograve
ENCODING 242
SWIDTH 266 0
DWIDTH 2 0
BBX 2 6 0 0
BITMAP
42
23
66
66
66
85
ENDCHAR
STARTCHAR oacute
ENCODING 243
SWIDTH 266 0
DWIDTH 2 0
BBX 2 6 0 0
BITMAP
15
33
66
66
66
85
ENDCHAR
STARTCHAR ocircumflex
ENCODING 244
SWIDTH 266 0
DWIDTH 2 0
BBX 4 8 -1 0
BITMAP
0210
0660
2213
0220
0660
0660
0660
0850
ENDCHAR
STARTCHAR otilde
ENCODING 245
SWIDTH 266 0
DWIDTH 2 0
BBX 4 6 -1 0
BITMAP
1745
1382
0660
0660
0660
0850
ENDCHAR
STARTCHAR odieresis
ENCODING 246
SWIDTH 266 0
DWIDTH 2 0
BBX 2 6 0 0
BITMAP
33
22
66
66
66
85
ENDCHAR
STARTCHAR divide
ENCODING 247
SWIDTH 345 0
DWIDTH 3 0
BBX 3 3 0 1
BITMAP
0200
4630
0200
ENDCHAR
STARTCHAR oslash
ENCODING 248
SWIDTH 266 0
DWIDTH 2 0
BBX 2 6 0 -1
BITMAP
25
69
7B
B7
A5
30
ENDCHAR
STARTCHAR ugrave
ENCODING 249
SWIDTH 387 0
DWIDTH 3 0
BBX 3 7 0 -1
BITMAP
0600
0100
5050
6070
6290
5970
0010
ENDCHAR
STARTCHAR uacute
ENCODING 250
SWIDTH 387 0
DWIDTH 3 0
BBX 3 7 0 -1
BITMAP
0510
0100
5050
6070
6290
5970
0010
ENDCHAR
STARTCHAR ucircumflex
ENCODING 251
SWIDTH 387 0
DWIDTH 3 0
BBX 3 9 0 -1
BITMAP
0400
4540
4030
0000
5050
6070
6290
5970
0010
ENDCHAR
STARTCHAR udieresis
ENCODING 252
SWIDTH 387 0
DWIDTH 3 0
BBX 3 7 0 -1
BITMAP
1320
0000
5050
6070
6290
5970
0010
ENDCHAR
STARTCHAR yacute
ENCODING 253
SWIDTH 363 0
DWIDTH 3 0
BBX 3 9 0 -3
BITMAP
0500
0110
5060
5360
0880
0290
0060
0060
0060
ENDCHAR
STARTCHAR thorn
ENCODING 254
SWIDTH 439 0
DWIDTH 4 0
BBX 4 7 0 -1
BITMAP
1000
7653
8051
6730
7200
6000
1000
ENDCHAR
STARTCHAR ydieresis
ENCODING 255
SWIDTH 363 0
DWIDTH 3 0
BBX 3 9 0 -3
BITMAP
2320
0010
5060
5360
0880
0290
0060
0060
0060
ENDCHAR
STARTCHAR Amacron
ENCODING 256
SWIDTH 390 0
DWIDTH 3 0
BBX 4 7 0 0
BITMAP
5650
3600
5700
7420
73A5
8360
5050
ENDCHAR
STARTCHAR amacron
ENCODING 257
SWIDTH 366 0
DWIDTH 3 0
BBX 3 6 0 0
BITMAP
5660
0220
1870
7570
7860
9240
ENDCHAR
STARTCHAR Abreve
ENCODING 258
SWIDTH 390 0
DWIDTH 3 0
BBX 4 8 0 0
BITMAP
4630
0200
3600
5700
7420
73A5
8360
5050
ENDCHAR
STARTCHAR abreve
ENCODING 259
SWIDTH 366 0
DWIDTH 3 0
BBX 3 6 0 0
BITMAP
3650
0420
1870
7570
7860
9240
ENDCHAR
STARTCHAR Aogonek
ENCODING 260
SWIDTH 390 0
DWIDTH 3 0
BBX 4 8 0 -2
BITMAP
3600
5700
7420
73A5
8360
5050
0070
0086
ENDCHAR
STARTCHAR aogonek
ENCODING 261
SWIDTH 366 0
DWIDTH 3 0
BBX 4 7 0 -2
BITMAP
0220
1870
7570
7860
9260
0330
0174
ENDCHAR
STARTCHAR Cacute
ENCODING 262
SWIDTH 487 0
DWIDTH 4 0
BBX 4 7 0 0
BITMAP
0240
0760
2400
6000
6002
6035
6650
ENDCHAR
STARTCHAR cacute
ENCODING 263
SWIDTH 390 0
DWIDTH 3 0
BBX 3 7 0 0
BITMAP
0600
0100
2700
7400
6000
6060
5640
ENDCHAR
STARTCHAR Ccircumflex
ENCODING 264
SWIDTH 487 0
DWIDTH 4 0
BBX 4 9 0 0
BITMAP
0300
0660
3112
0560
2400
6000
6002
6035
6650
ENDCHAR
STARTCHAR ccircumflex
ENCODING 265
SWIDTH 390 0
DWIDTH 3 0
BBX 3 8 0 0
BITMAP
0400
4540
4030
2700
7400
6000
6060
5640
ENDCHAR
STARTCHAR Cdotaccent
ENCODING 266
SWIDTH 487 0
DWIDTH 4 0
BBX 4 7 0 0
BITMAP
0310
0560
2400
6000
6002
6035
6650
ENDCHAR
STARTCHAR cdotaccent
ENCODING 267
SWIDTH 390 0
DWIDTH 3 0
BBX 3 6 0 0
BITMAP
0200
2700
7400
6000
6060
5640
ENDCHAR
STARTCHAR Ccaron
ENCODING 268
SWIDTH 487 0
DWIDTH 4 0
BBX 4 8 0 0
BITMAP
1111
0650
0660
2400
6000
6002
6035
6650
ENDCHAR
STARTCHAR ccaron
ENCODING 269
SWIDTH 390 0
DWIDTH 3 0
BBX 3 7 0 0
BITMAP
2020
3630
2800
7400
6000
6060
5640
ENDCHAR
STARTCHAR Dcaron
ENCODING 270
SWIDTH 554 0
DWIDTH 4 0
BBX 5 8 0 0
BITMAP
020200
045200
476200
640520
240410
151600
058100
072000
ENDCHAR
STARTCHAR Emacron
ENCODING 274
SWIDTH 474 0
DWIDTH 4 0
BBX 4 7 0 0
BITMAP
3661
5550
8300
6150
6500
7154
6710
ENDCHAR
STARTCHAR emacron
ENCODING 275
SWIDTH 461 0
DWIDTH 4 0
BBX 4 6 0 0
BITMAP
3562
0210
2790
9710
8044
5650
ENDCHAR
STARTCHAR Ebreve
ENCODING 276
SWIDTH 474 0
DWIDTH 4 0
BBX 4 7 0 0
BITMAP
0670
5660
8300
6150
6500
7154
6710
ENDCHAR
STARTCHAR ebreve
ENCODING 277
SWIDTH 461 0
DWIDTH 4 0
BBX 4 6 0 0
BITMAP
0670
0320
2790
9710
8044
5650
ENDCHAR
STARTCHAR Edotaccent
ENCODING 278
SWIDTH 474 0
DWIDTH 4 0
BBX 4 7 0 0
BITMAP
0300
5550
8300
6150
6500
7154
6710
ENDCHAR
STARTCHAR edotaccent
ENCODING 279
SWIDTH 461 0
DWIDTH 4 0
BBX 4 5 0 0
BITMAP
0420
2790
9710
8044
5650
ENDCHAR
STARTCHAR Eogonek
ENCODING 280
SWIDTH 474 0
DWIDTH 4 0
BBX 4 7 0 -1
BITMAP
5550
8300
6150
6500
7154
6A30
0273
ENDCHAR
STARTCHAR eogonek
ENCODING 281
SWIDTH 461 0
DWIDTH 4 0
BBX 4 7 0 -2
BITMAP
0210
2790
9710
8044
4750
0600
0560
ENDCHAR
STARTCHAR Ecaron
ENCODING 282
SWIDTH 474 0
DWIDTH 4 0
BBX 4 8 0 0
BITMAP
2010
1640
5550
8300
6150
6500
7154
6710
ENDCHAR
STARTCHAR ecaron
ENCODING 283
SWIDTH 461 0
DWIDTH 4 0
BBX 4 7 0 0
BITMAP
2011
1650
0210
2790
9710
8044
5650
ENDCHAR
STARTCHAR Gcircumflex
ENCODING 284
SWIDTH 591 0
DWIDTH 5 0
BBX 5 9 0 -1
BITMAP
013000
065200
041400
045100
150120
602A30
602C00
686700
000500
ENDCHAR
STARTCHAR gcircumflex
ENCODING 285
SWIDTH 437 0
DWIDTH 4 0
BBX 4 12 0 -4
BITMAP
0400
2650
4031
0140
16C0
64A1
6862
5253
0053
0070
0270
1500
ENDCHAR
STARTCHAR Gbreve
ENCODING 286
SWIDTH 591 0
DWIDTH 5 0
BBX 5 8 0 -1
BITMAP
026500
003100
045100
150120
602A30
602C00
686700
000500
ENDCHAR
STARTCHAR gbreve
ENCODING 287
SWIDTH 437 0
DWIDTH 4 0
BBX 4 11 0 -4
BITMAP
0670
0100
0140
16C0
64A1
6862
5253
0053
0070
0270
1500
ENDCHAR
STARTCHAR Gdotaccent
ENCODING 288
SWIDTH 591 0
DWIDTH 5 0
BBX 5 8 0 -1
BITMAP
003000
001100
026100
060120
411950
601B20
587520
000320
ENDCHAR
STARTCHAR gdotaccent
ENCODING 289
SWIDTH 437 0
DWIDTH 4 0
BBX 4 9 0 -4
BITMAP
0270
16C0
64A1
6862
5253
0053
0070
0270
1500
ENDCHAR
STARTCHAR Gcommaaccent
ENCODING 290
SWIDTH 591 0
DWIDTH 5 0
BBX 5 9 0 -3
BITMAP
001100
045100
150120
602A30
602C00
686700
001500
007000
003000
ENDCHAR
STARTCHAR Hcircumflex
ENCODING 292
SWIDTH 424 0
DWIDTH 3 0
BBX 4 9 0 0
BITMAP
0400
4540
4030
2020
6060
6070
7690
7151
6042
ENDCHAR
STARTCHAR hcircumflex
ENCODING 293
SWIDTH 466 0
DWIDTH 4 0
BBX 4 8 0 0
BITMAP
0040
0553
5403
6000
7485
7907
A407
7007
ENDCHAR
STARTCHAR Hbar
ENCODING 294
SWIDTH 424 0
DWIDTH 3 0
BBX 4 6 0 0
BITMAP
2020
6060
86B0
7690
7151
6042
ENDCHAR
STARTCHAR hbar
ENCODING 295
SWIDTH 466 0
DWIDTH 4 0
BBX 5 6 -1 0
BITMAP
050000
184200
285950
079070
0A4070
070070
ENDCHAR
STARTCHAR Itilde
ENCODING 296
SWIDTH 153 0
DWIDTH 1 0
BBX 4 8 -1 0
BITMAP
5641
2350
0600
0600
0600
0600
0600
0500
ENDCHAR
STARTCHAR itilde
ENCODING 297
SWIDTH 132 0
DWIDTH 1 0
BBX 3 7 -1 0
BITMAP
2210
5780
0300
0700
0700
0600
0600
ENDCHAR
STARTCHAR imacron
ENCODING 299
SWIDTH 132 0
DWIDTH 1 0
BBX 3 6 -1 0
BITMAP
4660
0300
0700
0700
0600
0600
ENDCHAR
STARTCHAR Ibreve
ENCODING 300
SWIDTH 153 0
DWIDTH 1 0
BBX 3 8 -1 0
BITMAP
1660
0200
0600
0600
0600
0600
0600
0500
ENDCHAR
STARTCHAR ibreve
ENCODING 301
SWIDTH 132 0
DWIDTH 1 0
BBX 3 7 -1 0
BITMAP
1020
1840
0300
0700
0700
0600
0600
ENDCHAR
STARTCHAR Iogonek
ENCODING 302
SWIDTH 153 0
DWIDTH 1 0
BBX 2 8 0 -2
BITMAP
60
60
60
60
60
70
61
56
ENDCHAR
STARTCHAR iogonek
ENCODING 303
SWIDTH 132 0
DWIDTH 1 0
BBX 3 8 -1 -2
BITMAP
0200
0300
0700
0700
0600
0600
2600
1840
ENDCHAR
STARTCHAR Idotaccent
ENCODING 304
SWIDTH 153 0
DWIDTH 1 0
BBX 1 7 0 0
BITMAP
30
60
60
60
60
60
50
ENDCHAR
STARTCHAR dotlessi
ENCODING 305
SWIDTH 132 0
DWIDTH 1 0
BBX 1 5 0 0
BITMAP
30
70
70
60
60
ENDCHAR
STARTCHAR Jcircumflex
ENCODING 308
SWIDTH 371 0
DWIDTH 3 0
BBX 4 9 0 -1
BITMAP
0310
0660
3242
0160
0070
0060
0060
5060
1520
ENDCHAR
STARTCHAR jcircumflex
ENCODING 309
SWIDTH 112 0
DWIDTH 1 0
BBX 4 11 -2 -3
BITMAP
0030
0553
0403
0000
0060
0060
0060
0060
0060
2160
0540
ENDCHAR
STARTCHAR Kcommaaccent
ENCODING 310
SWIDTH 524 0
DWIDTH 4 0
BBX 5 9 0 -3
BITMAP
200000
607000
643000
660000
585510
330000
001000
034000
021000
ENDCHAR
STARTCHAR kcommaaccent
ENCODING 311
SWIDTH 428 0
DWIDTH 3 0
BBX 4 9 0 -3
BITMAP
7000
7042
7190
7920
B400
7571
1100
0700
0300
ENDCHAR
STARTCHAR Lacute
ENCODING 313
SWIDTH 537 0
DWIDTH 4 0
BBX 5 6 0 0
BITMAP
006000
801000
800000
800000
802610
875000
ENDCHAR
STARTCHAR lacute
ENCODING 314
SWIDTH 137 0
DWIDTH 1 0
BBX 1 9 0 0
BITMAP
60
10
40
50
50
50
50
60
60
ENDCHAR
STARTCHAR Lcommaaccent
ENCODING 315
SWIDTH 537 0
DWIDTH 4 0
BBX 5 8 0 -3
BITMAP
800000
800000
800000
802610
875000
001000
025000
012000
ENDCHAR
STARTCHAR lcommaaccent
ENCODING 316
SWIDTH 137 0
DWIDTH 1 0
BBX 1 10 0 -3
BITMAP
40
50
50
50
50
60
60
10
70
30
ENDCHAR
STARTCHAR Lcaron
ENCODING 317
SWIDTH 537 0
DWIDTH 4 0
BBX 5 8 0 0
BITMAP
201000
164000
000000
800000
800000
800000
802610
875000
ENDCHAR
STARTCHAR Ldot
ENCODING 319
SWIDTH 537 0
DWIDTH 4 0
BBX 5 5 0 0
BITMAP
800000
800000
802000
804610
875000
ENDCHAR
STARTCHAR ldot
ENCODING 320
SWIDTH 267 0
DWIDTH 2 0
BBX 2 7 0 0
BITMAP
40
50
50
50
52
62
60
ENDCHAR
STARTCHAR Lslash
ENCODING 321
SWIDTH 537 0
DWIDTH 4 0
BBX 6 5 -1 0
BITMAP
080000
080000
086400
1A1261
087500
ENDCHAR
STARTCHAR lslash
ENCODING 322
SWIDTH 137 0
DWIDTH 1 0
BBX 3 7 -1 0
BITMAP
0400
0500
0500
0500
0770
5900
0600
ENDCHAR
STARTCHAR Nacute
ENCODING 323
SWIDTH 541 0
DWIDTH 4 0
BBX 4 7 0 0
BITMAP
0420
1107
A206
7806
6176
612B
4205
ENDCHAR
STARTCHAR nacute
ENCODING 324
SWIDTH 483 0
DWIDTH 4 0
BBX 4 6 0 0
BITMAP
0230
3271
7725
8607
8507
7205
ENDCHAR
STARTCHAR Ncommaaccent
ENCODING 325
SWIDTH 541 0
DWIDTH 4 0
BBX 4 9 0 -3
BITMAP
1007
A206
7806
6176
612B
4205
0010
0250
0120
ENDCHAR
STARTCHAR ncommaaccent
ENCODING 326
SWIDTH 483 0
DWIDTH 4 0
BBX 4 8 0 -3
BITMAP
3171
7725
8607
8507
7205
0100
0520
0300
ENDCHAR
STARTCHAR Ncaron
ENCODING 327
SWIDTH 541 0
DWIDTH 4 0
BBX 4 8 0 0
BITMAP
1101
0651
1007
A206
7806
6176
612B
4205
ENDCHAR
STARTCHAR ncaron
ENCODING 328
SWIDTH 483 0
DWIDTH 4 0
BBX 4 7 0 0
BITMAP
2011
0650
3171
7725
8607
8507
7205
ENDCHAR
STARTCHAR napostrophe
ENCODING 329
SWIDTH 483 0
DWIDTH 4 0
BBX 4 8 0 0
BITMAP
0100
0700
0300
3171
7725
8607
8507
7205
ENDCHAR
STARTCHAR Omacron
ENCODING 332
SWIDTH 382 0
DWIDTH 3 0
BBX 4 6 0 0
BITMAP
2982
3580
7060
6070
6070
6820
ENDCHAR
STARTCHAR omacron
ENCODING 333
SWIDTH 266 0
DWIDTH 2 0
BBX 4 6 -1 0
BITMAP
1563
0220
0660
0660
0660
0850
ENDCHAR
STARTCHAR Obreve
ENCODING 334
SWIDTH 382 0
DWIDTH 3 0
BBX 3 7 0 0
BITMAP
3650
0620
3580
7060
6070
6070
6820
ENDCHAR
STARTCHAR obreve
ENCODING 335
SWIDTH 266 0
DWIDTH 2 0
BBX 3 6 0 0
BITMAP
5710
3400
6600
6600
6600
8500
ENDCHAR
STARTCHAR Ohungarumlaut
ENCODING 336
SWIDTH 382 0
DWIDTH 3 0
BBX 4 7 0 0
BITMAP
0481
0430
3580
7060
6070
6070
6820
ENDCHAR
STARTCHAR ohungarumlaut
ENCODING 337
SWIDTH 266 0
DWIDTH 2 0
BBX 2 6 0 0
BITMAP
58
34
66
66
66
85
ENDCHAR
STARTCHAR OE
ENCODING 338
SWIDTH 732 0
DWIDTH 6 0
BBX 6 6 0 0
BITMAP
045361
35A500
707050
609610
60C244
687730
ENDCHAR
STARTCHAR oe
ENCODING 339
SWIDTH 628 0
DWIDTH 5 0
BBX 5 5 0 0
BITMAP
221400
668740
66B310
675080
857610
ENDCHAR
STARTCHAR Racute
ENCODING 340
SWIDTH 503 0
DWIDTH 4 0
BBX 4 8 0 0
BITMAP
0060
2030
9658
7152
8600
8820
5057
5000
ENDCHAR
STARTCHAR racute
ENCODING 341
SWIDTH 396 0
DWIDTH 3 0
BBX 3 6 0 0
BITMAP
0410
0100
6760
6700
6600
4400
ENDCHAR
STARTCHAR Rcommaaccent
ENCODING 342
SWIDTH 503 0
DWIDTH 4 0
BBX 4 10 0 -3
BITMAP
2020
9658
7152
8600
8820
5057
5000
0110
0430
0210
ENDCHAR
STARTCHAR rcommaaccent
ENCODING 343
SWIDTH 396 0
DWIDTH 3 0
BBX 3 7 0 -3
BITMAP
6760
6700
6600
4400
0100
0700
0300
ENDCHAR
STARTCHAR Rcaron
ENCODING 344
SWIDTH 503 0
DWIDTH 4 0
BBX 4 9 0 0
BITMAP
0202
0551
2020
9658
7152
8600
8820
5057
5000
ENDCHAR
STARTCHAR rcaron
ENCODING 345
SWIDTH 396 0
DWIDTH 3 0
BBX 3 7 0 0
BITMAP
2020
2630
0000
6760
6700
6600
4400
ENDCHAR
STARTCHAR Sacute
ENCODING 346
SWIDTH 541 0
DWIDTH 4 0
BBX 5 7 0 0
BITMAP
006000
047200
530000
600000
555300
000910
066100
ENDCHAR
STARTCHAR sacute
ENCODING 347
SWIDTH 366 0
DWIDTH 3 0
BBX 3 7 0 -1
BITMAP
0510
0100
3620
6120
5680
0730
0100
ENDCHAR
STARTCHAR Scircumflex
ENCODING 348
SWIDTH 541 0
DWIDTH 4 0
BBX 5 9 0 0
BITMAP
013000
065200
040300
036200
530000
600000
555300
000910
066100
ENDCHAR
STARTCHAR scircumflex
ENCODING 349
SWIDTH 366 0
DWIDTH 3 0
BBX 3 8 0 -1
BITMAP
0400
4540
4030
3620
6120
5680
0730
0100
ENDCHAR
STARTCHAR Scedilla
ENCODING 350
SWIDTH 541 0
DWIDTH 4 0
BBX 5 9 0 -3
BITMAP
036200
530000
600000
555300
000910
067100
005400
000840
002510
ENDCHAR
STARTCHAR scedilla
ENCODING 351
SWIDTH 366 0
DWIDTH 3 0
BBX 3 7 0 -3
BITMAP
3620
6120
5680
0730
0800
02A0
0540
ENDCHAR
STARTCHAR Scaron
ENCODING 352
SWIDTH 541 0
DWIDTH 4 0
BBX 5 8 0 0
BITMAP
020200
055100
046200
530000
600000
555300
000910
066100
ENDCHAR
STARTCHAR scaron
ENCODING 353
SWIDTH 366 0
DWIDTH 3 0
BBX 3 8 0 -1
BITMAP
2020
3630
0000
3620
6120
5680
0730
0100
ENDCHAR
STARTCHAR Tcommaaccent
ENCODING 354
SWIDTH 595 0
DWIDTH 5 0
BBX 6 9 0 -3
BITMAP
037662
537000
005100
004300
002500
000600
000100
000700
000300
ENDCHAR
STARTCHAR tcommaaccent
ENCODING 355
SWIDTH 268 0
DWIDTH 2 0
BBX 4 9 -1 -3
BITMAP
0600
0651
2C30
0700
0700
0600
0110
0340
0210
ENDCHAR
STARTCHAR Tcaron
ENCODING 356
SWIDTH 595 0
DWIDTH 5 0
BBX 6 8 0 0
BITMAP
011010
006500
037662
537000
005100
004300
002500
000600
ENDCHAR
STARTCHAR Tbar
ENCODING 358
SWIDTH 595 0
DWIDTH 5 0
BBX 6 6 0 0
BITMAP
037662
537000
039710
004300
002500
000600
ENDCHAR
STARTCHAR Utilde
ENCODING 360
SWIDTH 450 0
DWIDTH 4 0
BBX 4 8 0 -1
BITMAP
4723
2170
5024
7055
6084
6084
5625
0005
ENDCHAR
STARTCHAR utilde
ENCODING 361
SWIDTH 387 0
DWIDTH 3 0
BBX 3 7 0 -1
BITMAP
6650
2440
5050
6070
6290
5970
0010
ENDCHAR
STARTCHAR Umacron
ENCODING 362
SWIDTH 450 0
DWIDTH 4 0
BBX 4 7 0 -1
BITMAP
3661
5024
7055
6084
6084
5625
0005
ENDCHAR
STARTCHAR umacron
ENCODING 363
SWIDTH 387 0
DWIDTH 3 0
BBX 3 7 0 -1
BITMAP
4660
0000
5050
6070
6290
5970
0010
ENDCHAR
STARTCHAR Ubreve
ENCODING 364
SWIDTH 450 0
DWIDTH 4 0
BBX 4 7 0 -1
BITMAP
0670
5134
7055
6084
6084
5625
0005
ENDCHAR
STARTCHAR ubreve
ENCODING 365
SWIDTH 387 0
DWIDTH 3 0
BBX 3 7 0 -1
BITMAP
2650
0200
5050
6070
6290
5970
0010
ENDCHAR
STARTCHAR Uring
ENCODING 366
SWIDTH 450 0
DWIDTH 4 0
BBX 4 8 0 -1
BITMAP
0530
2760
5024
7055
6084
6084
5625
0005
ENDCHAR
STARTCHAR uring
ENCODING 367
SWIDTH 387 0
DWIDTH 3 0
BBX 3 7 0 -1
BITMAP
1510
4650
5050
6070
6290
5970
0010
ENDCHAR
STARTCHAR Uhungarumlaut
ENCODING 368
SWIDTH 450 0
DWIDTH 4 0
BBX 4 8 0 -1
BITMAP
0850
0110
5024
7055
6084
6084
5625
0005
ENDCHAR
STARTCHAR uhungarumlaut
ENCODING 369
SWIDTH 387 0
DWIDTH 3 0
BBX 3 6 0 -1
BITMAP
3820
6250
6070
6290
5970
0010
ENDCHAR
STARTCHAR Uogonek
ENCODING 370
SWIDTH 450 0
DWIDTH 4 0
BBX 5 8 0 -3
BITMAP
502400
705500
608400
608400
562500
005500
007510
001200
ENDCHAR
STARTCHAR uogonek
ENCODING 371
SWIDTH 387 0
DWIDTH 3 0
BBX 4 6 0 -2
BITMAP
5050
6070
6290
5980
0340
0273
ENDCHAR
STARTCHAR Wcircumflex
ENCODING 372
SWIDTH 878 0
DWIDTH 7 0
BBX 7 9 0 0
BITMAP
00040000
00454000
00403000
00000050
70091060
61075330
16427600
09604800
07700300
ENDCHAR
STARTCHAR wcircumflex
ENCODING 373
SWIDTH 566 0
DWIDTH 5 0
BBX 5 8 0 0
BITMAP
012000
065200
030300
000000
647420
586620
0D1A30
080220
ENDCHAR
STARTCHAR Ycircumflex
ENCODING 374
SWIDTH 483 0
DWIDTH 4 0
BBX 4 9 0 0
BITMAP
0310
0660
3113
0005
7024
1761
0390
0240
0500
ENDCHAR
STARTCHAR ycircumflex
ENCODING 375
SWIDTH 363 0
DWIDTH 3 0
BBX 3 11 0 -3
BITMAP
0400
5530
4030
0010
5060
5360
0880
0290
0060
0060
0060
ENDCHAR
STARTCHAR Ydieresis
ENCODING 376
SWIDTH 483 0
DWIDTH 4 0
BBX 4 7 0 0
BITMAP
0001
0335
7024
1761
0390
0240
0500
ENDCHAR
STARTCHAR Zacute
ENCODING 377
SWIDTH 670 0
DWIDTH 5 0
BBX 6 8 0 0
BITMAP
006000
001000
455630
000810
006300
036000
170000
A98771
ENDCHAR
STARTCHAR zacute
ENCODING 378
SWIDTH 618 0
DWIDTH 5 0
BBX 5 6 0 0
BITMAP
005100
001000
36A100
208000
042010
097870
ENDCHAR
STARTCHAR Zdotaccent
ENCODING 379
SWIDTH 670 0
DWIDTH 5 0
BBX 6 7 0 0
BITMAP
003000
455630
000810
006300
036000
170000
A98771
ENDCHAR
STARTCHAR zdotaccent
ENCODING 380
SWIDTH 618 0
DWIDTH 5 0
BBX 5 5 0 0
BITMAP
003000
36A100
208000
042010
097870
ENDCHAR
STARTCHAR Zcaron
ENCODING 381
SWIDTH 670 0
DWIDTH 5 0
BBX 6 8 0 0
BITMAP
020100
016400
456630
000810
006300
036000
170000
A98771
ENDCHAR
STARTCHAR zcaron
ENCODING 382
SWIDTH 618 0
DWIDTH 5 0
BBX 5 6 0 0
BITMAP
020200
055100
36B100
208000
042010
097870
ENDCHAR
STARTCHAR florin
ENCODING 402
SWIDTH 345 0
DWIDTH 3 0
BBX 3 10 0 -2
BITMAP
0100
1B20
3500
4310
5840
4300
2400
2500
2600
7500
ENDCHAR
STARTCHAR AEacute
ENCODING 508
SWIDTH 708 0
DWIDTH 6 0
BBX 6 8 0 0
BITMAP
006000
001000
365550
578200
748240
73E300
83B063
506610
ENDCHAR
STARTCHAR aeacute
ENCODING 509
SWIDTH 705 0
DWIDTH 6 0
BBX 6 6 0 0
BITMAP
002400
023530
18B680
75E502
788062
927630
ENDCHAR
STARTCHAR Oslashacute
ENCODING 510
SWIDTH 382 0
DWIDTH 3 0
BBX 3 8 0 -1
BITMAP
0330
0540
36A0
7570
6570
7570
8920
3000
ENDCHAR
STARTCHAR oslashacute
ENCODING 511
SWIDTH 266 0
DWIDTH 2 0
BBX 2 7 0 -1
BITMAP
15
36
69
7B
B7
A5
30
ENDCHAR
STARTCHAR Scommaaccent
ENCODING 536
SWIDTH 541 0
DWIDTH 4 0
BBX 5 9 0 -3
BITMAP
036200
530000
600000
555300
000910
066100
001000
025000
012000
ENDCHAR
STARTCHAR scommaaccent
ENCODING 537
SWIDTH 366 0
DWIDTH 3 0
BBX 3 7 0 -3
BITMAP
3620
6120
5680
0730
0200
0700
0300
ENDCHAR
STARTCHAR circumflex
ENCODING 710
SWIDTH 390 0
DWIDTH 3 0
BBX 3 3 0 5
BITMAP
0400
3540
4030
ENDCHAR
STARTCHAR caron
ENCODING 711
SWIDTH 390 0
DWIDTH 3 0
BBX 3 2 0 5
BITMAP
2020
1640
ENDCHAR
STARTCHAR breve
ENCODING 728
SWIDTH 390 0
DWIDTH 3 0
BBX 3 2 0 4
BITMAP
3640
0200
ENDCHAR
STARTCHAR dotaccent
ENCODING 729
SWIDTH 128 0
DWIDTH 1 0
BBX 1 1 0 4
BITMAP
30
ENDCHAR
STARTCHAR ring
ENCODING 730
SWIDTH 266 0
DWIDTH 2 0
BBX 2 2 0 4
BITMAP
34
78
ENDCHAR
STARTCHAR ogonek
ENCODING 731
SWIDTH 366 0
DWIDTH 3 0
BBX 3 3 0 -2
BITMAP
0100
1600
2840
ENDCHAR
STARTCHAR tilde
ENCODING 732
SWIDTH 458 0
DWIDTH 4 0
BBX 4 2 0 4
BITMAP
4732
2260
ENDCHAR
STARTCHAR hungarumlaut
ENCODING 733
SWIDTH 239 0
DWIDTH 2 0
BBX 2 2 0 3
BITMAP
76
11
ENDCHAR
STARTCHAR Wgrave
ENCODING 7808
SWIDTH 878 0
DWIDTH 7 0
BBX 7 8 0 0
BITMAP
00060000
00010000
00000050
70091060
61075330
16427600
09604800
07700300
ENDCHAR
STARTCHAR wgrave
ENCODING 7809
SWIDTH 566 0
DWIDTH 5 0
BBX 5 6 0 0
BITMAP
024000
001000
647420
586620
0D1A30
080220
ENDCHAR
STARTCHAR Wacute
ENCODING 7810
SWIDTH 878 0
DWIDTH 7 0
BBX 7 8 0 0
BITMAP
00060000
00110000
00000050
70091060
61075330
16427600
09604800
07700300
ENDCHAR
STARTCHAR wacute
ENCODING 7811
SWIDTH 566 0
DWIDTH 5 0
BBX 5 6 0 0
BITMAP
006000
002000
647420
586620
0D1A30
080220
ENDCHAR
STARTCHAR Wdieresis
ENCODING 7812
SWIDTH 878 0
DWIDTH 7 0
BBX 7 7 0 0
BITMAP
00133000
00000050
70091060
61075330
16427600
09604800
07700300
ENDCHAR
STARTCHAR wdieresis
ENCODING 7813
SWIDTH 566 0
DWIDTH 5 0
BBX 5 6 0 0
BITMAP
033000
000000
647420
586620
0D1A30
080220
ENDCHAR
STARTCHAR Ygrave
ENCODING 7922
SWIDTH 483 0
DWIDTH 4 0
BBX 4 8 0 0
BITMAP
0410
0011
0005
7024
1761
0390
0240
0500
ENDCHAR
STARTCHAR ygrave
ENCODING 7923
SWIDTH 363 0
DWIDTH 3 0
BBX 3 9 0 -3
BITMAP
1500
0110
5060
5360
0880
0290
0060
0060
0060
ENDCHAR
STARTCHAR endash
ENCODING 8211
SWIDTH 399 0
DWIDTH 3 0
BBX 3 2 0 1
BITMAP
0370
5400
ENDCHAR
STARTCHAR emdash
ENCODING 8212
SWIDTH 549 0
DWIDTH 4 0
BBX 4 2 0 1
BITMAP
0146
4531
ENDCHAR
STARTCHAR quoteleft
ENCODING 8216
SWIDTH 155 0
DWIDTH 1 0
BBX 1 3 0 2
BITMAP
70
60
10
ENDCHAR
STARTCHAR quoteright
ENCODING 8217
SWIDTH 155 0
DWIDTH 1 0
BBX 1 3 0 2
BITMAP
70
60
10
ENDCHAR
STARTCHAR quotesinglbase
ENCODING 8218
SWIDTH 155 0
DWIDTH 1 0
BBX 1 3 0 0
BITMAP
10
70
50
ENDCHAR
STARTCHAR quotedblleft
ENCODING 8220
SWIDTH 212 0
DWIDTH 2 0
BBX 2 3 0 4
BITMAP
21
54
43
ENDCHAR
STARTCHAR quotedblright
ENCODING 8221
SWIDTH 212 0
DWIDTH 2 0
BBX 2 3 0 4
BITMAP
21
54
43
ENDCHAR
STARTCHAR quotedblbase
ENCODING 8222
SWIDTH 212 0
DWIDTH 2 0
BBX 2 3 0 0
BITMAP
11
65
53
ENDCHAR
STARTCHAR dagger
ENCODING 8224
SWIDTH 268 0
DWIDTH 2 0
BBX 4 7 -1 -1
BITMAP
0600
0651
2C30
0700
0700
0600
0100
ENDCHAR
STARTCHAR daggerdbl
ENCODING 8225
SWIDTH 326 0
DWIDTH 3 0
BBX 3 7 0 -1
BITMAP
1500
2730
9820
6920
1500
0600
0100
ENDCHAR
STARTCHAR bullet
ENCODING 8226
SWIDTH 189 0
DWIDTH 2 0
BBX 2 2 0 1
BITMAP
83
10
ENDCHAR
STARTCHAR ellipsis
ENCODING 8230
SWIDTH 387 0
DWIDTH 3 0
BBX 3 1 0 0
BITMAP
3330
ENDCHAR
STARTCHAR guilsinglleft
ENCODING 8249
SWIDTH 409 0
DWIDTH 3 0
BBX 4 4 0 1
BITMAP
0081
1710
6500
0380
ENDCHAR
STARTCHAR guilsinglright
ENCODING 8250
SWIDTH 450 0
DWIDTH 4 0
BBX 4 5 0 1
BITMAP
1000
3830
0081
0450
5500
ENDCHAR
STARTCHAR fraction
ENCODING 8260
SWIDTH 306 0
DWIDTH 2 0
BBX 3 7 0 -1
BITMAP
0210
0600
0600
1400
5000
6000
3000
ENDCHAR
STARTCHAR Euro
ENCODING 8364
SWIDTH 589 0
DWIDTH 5 0
BBX 5 7 0 -1
BITMAP
006500
052000
284000
385100
581030
076810
001000
ENDCHAR
STARTCHAR trademark
ENCODING 8482
SWIDTH 1278 0
DWIDTH 10 0
BBX 10 7 0 0
BITMAP
0000010000
03766C1045
5370057055
0051055255
0043070A25
0025080206
0006080007
ENDCHAR
STARTCHAR minus
ENCODING 8722
SWIDTH 358 0
DWIDTH 3 0
BBX 3 1 0 2
BITMAP
3640
ENDCHAR
STARTCHAR commaaccent
ENCODING 63171
SWIDTH 450 0
DWIDTH 4 0
BBX 1 3 1 -3
BITMAP
10
70
30
ENDCHAR
STARTCHAR fi
ENCODING 64257
SWIDTH 409 0
DWIDTH 3 0
BBX 3 8 0 0
BITMAP
0100
1B20
3530
4330
59A0
5370
2560
1560
ENDCHAR
STARTCHAR fl
ENCODING 64258
SWIDTH 416 0
DWIDTH 3 0
BBX 3 8 0 0
BITMAP
0100
1B60
3550
4350
5990
5350
2560
1570
ENDCHAR
STARTCHAR .notdef
ENCODING -1
SWIDTH 450 0
DWIDTH 4 0
BBX 1 1 0 0
BITMAP
00
ENDCHAR
STARTCHAR .null
ENCODING -1
SWIDTH 0 0
DWIDTH 0 0
BBX 1 1 0 0
BITMAP
00
ENDCHAR
STARTCHAR nonmarkingreturn
ENCODING -1
SWIDTH 450 0
DWIDTH 4 0
BBX 1 1 0 0
BITMAP
00
ENDCHAR
ENDFONT
